%TF.GenerationSoftware,KiCad,Pcbnew,9.0.5*%
%TF.CreationDate,2026-06-21T12:00:19+05:30*%
%TF.ProjectId,tamagotchi_circuit,74616d61-676f-4746-9368-695f63697263,rev?*%
%TF.SameCoordinates,Original*%
%TF.FileFunction,Copper,L1,Top*%
%TF.FilePolarity,Positive*%
%FSLAX46Y46*%
G04 Gerber Fmt 4.6, Leading zero omitted, Abs format (unit mm)*
G04 Created by KiCad (PCBNEW 9.0.5) date 2026-06-21 12:00:19*
%MOMM*%
%LPD*%
G01*
G04 APERTURE LIST*
%TA.AperFunction,ComponentPad*%
%ADD10C,1.575000*%
%TD*%
%TA.AperFunction,ComponentPad*%
%ADD11R,2.800000X2.800000*%
%TD*%
%TA.AperFunction,ComponentPad*%
%ADD12R,1.600000X1.600000*%
%TD*%
%TA.AperFunction,ComponentPad*%
%ADD13C,1.600000*%
%TD*%
%TA.AperFunction,ComponentPad*%
%ADD14R,1.508000X1.508000*%
%TD*%
%TA.AperFunction,ComponentPad*%
%ADD15C,1.508000*%
%TD*%
%TA.AperFunction,ComponentPad*%
%ADD16O,1.600000X1.600000*%
%TD*%
%TA.AperFunction,Conductor*%
%ADD17C,0.200000*%
%TD*%
G04 APERTURE END LIST*
D10*
%TO.P,S2,1*%
%TO.N,unconnected-(S2-Pad1)*%
X237993750Y-103906250D03*
%TO.P,S2,2*%
%TO.N,/In+*%
X237993750Y-110406250D03*
%TO.P,S2,3*%
%TO.N,Net-(A1-D3)*%
X233493750Y-103906250D03*
%TO.P,S2,4*%
%TO.N,unconnected-(S2-Pad4)*%
X233493750Y-110406250D03*
%TD*%
%TO.P,S3,1*%
%TO.N,unconnected-(S3-Pad1)*%
X250031250Y-103037500D03*
%TO.P,S3,2*%
%TO.N,/In+*%
X250031250Y-109537500D03*
%TO.P,S3,3*%
%TO.N,Net-(A1-D2)*%
X245531250Y-103037500D03*
%TO.P,S3,4*%
%TO.N,unconnected-(S3-Pad4)*%
X245531250Y-109537500D03*
%TD*%
%TO.P,S1,1*%
%TO.N,unconnected-(S1-Pad1)*%
X226087500Y-103906250D03*
%TO.P,S1,2*%
%TO.N,/In+*%
X226087500Y-110406250D03*
%TO.P,S1,3*%
%TO.N,Net-(A1-D4)*%
X221587500Y-103906250D03*
%TO.P,S1,4*%
%TO.N,unconnected-(S1-Pad4)*%
X221587500Y-110406250D03*
%TD*%
D11*
%TO.P,J1,1,Pin_1*%
%TO.N,/In+*%
X182850000Y-61943750D03*
%TO.P,J1,2,Pin_2*%
%TO.N,/In-*%
X182850000Y-76143750D03*
%TO.P,J1,3,Pin_3*%
%TO.N,/OUT+*%
X205750000Y-61943750D03*
%TO.P,J1,4,Pin_4*%
%TO.N,/OUT-*%
X205750000Y-76443750D03*
%TO.P,J1,5,Pin_5*%
%TO.N,/BAT+*%
X205750000Y-65443750D03*
%TO.P,J1,6,Pin_6*%
%TO.N,/BAT-*%
X205750000Y-73043750D03*
%TD*%
D12*
%TO.P,BT1,1,+*%
%TO.N,Net-(BT1-+)*%
X226218750Y-83343750D03*
D13*
%TO.P,BT1,2,-*%
%TO.N,/BAT-*%
X229468750Y-80693750D03*
%TD*%
D14*
%TO.P,DS1,1,VDD*%
%TO.N,/OUT+*%
X193833750Y-82081250D03*
D15*
%TO.P,DS1,2,GND*%
%TO.N,/In+*%
X196373750Y-82081250D03*
%TO.P,DS1,3,SCK*%
%TO.N,Net-(A1-SCL{slash}A5)*%
X198913750Y-82081250D03*
%TO.P,DS1,4,SDA*%
%TO.N,Net-(A1-SDA{slash}A4)*%
X201453750Y-82081250D03*
%TD*%
%TO.P,SW1,1,A*%
%TO.N,Net-(BT1-+)*%
X228125000Y-66675000D03*
%TO.P,SW1,2,B*%
%TO.N,/BAT+*%
X230625000Y-66675000D03*
%TO.P,SW1,3,C*%
%TO.N,unconnected-(SW1-C-Pad3)*%
X233125000Y-66675000D03*
%TD*%
D12*
%TO.P,A1,1,TX1*%
%TO.N,unconnected-(A1-TX1-Pad1)*%
X142408750Y-80962500D03*
D16*
%TO.P,A1,2,RX1*%
%TO.N,unconnected-(A1-RX1-Pad2)*%
X142408750Y-83502500D03*
%TO.P,A1,3,~{RESET}*%
%TO.N,unconnected-(A1-~{RESET}-Pad3)*%
X142408750Y-86042500D03*
%TO.P,A1,4,GND*%
%TO.N,/In+*%
X142408750Y-88582500D03*
%TO.P,A1,5,D2*%
%TO.N,Net-(A1-D2)*%
X142408750Y-91122500D03*
%TO.P,A1,6,D3*%
%TO.N,Net-(A1-D3)*%
X142408750Y-93662500D03*
%TO.P,A1,7,D4*%
%TO.N,Net-(A1-D4)*%
X142408750Y-96202500D03*
%TO.P,A1,8,D5*%
%TO.N,unconnected-(A1-D5-Pad8)*%
X142408750Y-98742500D03*
%TO.P,A1,9,D6*%
%TO.N,unconnected-(A1-D6-Pad9)*%
X142408750Y-101282500D03*
%TO.P,A1,10,D7*%
%TO.N,unconnected-(A1-D7-Pad10)*%
X142408750Y-103822500D03*
%TO.P,A1,11,D8*%
%TO.N,unconnected-(A1-D8-Pad11)*%
X142408750Y-106362500D03*
%TO.P,A1,12,D9*%
%TO.N,unconnected-(A1-D9-Pad12)*%
X142408750Y-108902500D03*
%TO.P,A1,13,D10*%
%TO.N,unconnected-(A1-D10-Pad13)*%
X142408750Y-111442500D03*
%TO.P,A1,14,MOSI*%
%TO.N,unconnected-(A1-MOSI-Pad14)*%
X142408750Y-113982500D03*
%TO.P,A1,15,MISO*%
%TO.N,unconnected-(A1-MISO-Pad15)*%
X142408750Y-116522500D03*
%TO.P,A1,16,SCK*%
%TO.N,unconnected-(A1-SCK-Pad16)*%
X157648750Y-116522500D03*
%TO.P,A1,17,3V3*%
%TO.N,unconnected-(A1-3V3-Pad17)*%
X157648750Y-113982500D03*
%TO.P,A1,18,AREF*%
%TO.N,unconnected-(A1-AREF-Pad18)*%
X157648750Y-111442500D03*
%TO.P,A1,19,A0*%
%TO.N,unconnected-(A1-A0-Pad19)*%
X157648750Y-108902500D03*
%TO.P,A1,20,A1*%
%TO.N,unconnected-(A1-A1-Pad20)*%
X157648750Y-106362500D03*
%TO.P,A1,21,A2*%
%TO.N,unconnected-(A1-A2-Pad21)*%
X157648750Y-103822500D03*
%TO.P,A1,22,A3*%
%TO.N,unconnected-(A1-A3-Pad22)*%
X157648750Y-101282500D03*
%TO.P,A1,23,SDA/A4*%
%TO.N,Net-(A1-SDA{slash}A4)*%
X157648750Y-98742500D03*
%TO.P,A1,24,SCL/A5*%
%TO.N,Net-(A1-SCL{slash}A5)*%
X157648750Y-96202500D03*
%TO.P,A1,25,A6*%
%TO.N,unconnected-(A1-A6-Pad25)*%
X157648750Y-93662500D03*
%TO.P,A1,26,A7*%
%TO.N,unconnected-(A1-A7-Pad26)*%
X157648750Y-91122500D03*
%TO.P,A1,27,+5V*%
%TO.N,/OUT+*%
X157648750Y-88582500D03*
%TO.P,A1,28,~{RESET}*%
%TO.N,unconnected-(A1-~{RESET}-Pad28)*%
X157648750Y-86042500D03*
%TO.P,A1,29,GND*%
%TO.N,/In+*%
X157648750Y-83502500D03*
%TO.P,A1,30,VIN*%
%TO.N,unconnected-(A1-VIN-Pad30)*%
X157648750Y-80962500D03*
%TD*%
D17*
%TO.N,/In+*%
X196373750Y-82081250D02*
X195222750Y-80930250D01*
X237993750Y-110406250D02*
X238781250Y-111193750D01*
X236905250Y-109317750D02*
X237993750Y-110406250D01*
X160221000Y-80930250D02*
X157648750Y-83502500D01*
X238781250Y-111193750D02*
X248375000Y-111193750D01*
X226087500Y-110406250D02*
X227176000Y-109317750D01*
X195222750Y-80930250D02*
X160221000Y-80930250D01*
X248375000Y-111193750D02*
X250031250Y-109537500D01*
X182850000Y-61943750D02*
X182850000Y-68557500D01*
X227176000Y-109317750D02*
X236905250Y-109317750D01*
X182850000Y-68557500D02*
X196373750Y-82081250D01*
%TO.N,Net-(A1-D3)*%
X229431000Y-99843500D02*
X148589750Y-99843500D01*
X233493750Y-103906250D02*
X229431000Y-99843500D01*
X148589750Y-99843500D02*
X142408750Y-93662500D01*
%TO.N,Net-(A1-D4)*%
X151129750Y-104923500D02*
X142408750Y-96202500D01*
X221587500Y-103906250D02*
X220570250Y-104923500D01*
X220570250Y-104923500D02*
X151129750Y-104923500D01*
%TO.N,Net-(A1-SCL{slash}A5)*%
X198913750Y-82081250D02*
X184792500Y-96202500D01*
X184792500Y-96202500D02*
X157648750Y-96202500D01*
%TO.N,Net-(A1-SDA{slash}A4)*%
X184792500Y-98742500D02*
X157648750Y-98742500D01*
X201453750Y-82081250D02*
X184792500Y-98742500D01*
%TO.N,/OUT+*%
X187332500Y-88582500D02*
X157648750Y-88582500D01*
X193833750Y-82081250D02*
X187332500Y-88582500D01*
X205750000Y-61943750D02*
X197428750Y-70265000D01*
X196810746Y-83136250D02*
X194888750Y-83136250D01*
X197428750Y-70265000D02*
X197428750Y-82518246D01*
X197428750Y-82518246D02*
X196810746Y-83136250D01*
X194888750Y-83136250D02*
X193833750Y-82081250D01*
%TO.N,Net-(A1-D2)*%
X233042878Y-104994750D02*
X230431628Y-102383500D01*
X141307750Y-92223500D02*
X142408750Y-91122500D01*
X141952700Y-94763500D02*
X141307750Y-94118550D01*
X245531250Y-103037500D02*
X243574000Y-104994750D01*
X230431628Y-102383500D02*
X150484800Y-102383500D01*
X141307750Y-94118550D02*
X141307750Y-92223500D01*
X243574000Y-104994750D02*
X233042878Y-104994750D01*
X150484800Y-102383500D02*
X142864800Y-94763500D01*
X142864800Y-94763500D02*
X141952700Y-94763500D01*
%TO.N,unconnected-(S1-Pad4)*%
X221587500Y-110406250D02*
X221587500Y-109668750D01*
X221587500Y-109668750D02*
X221456250Y-109537500D01*
%TO.N,Net-(BT1-+)*%
X228125000Y-66675000D02*
X228125000Y-81437500D01*
X228125000Y-81437500D02*
X226218750Y-83343750D01*
%TO.N,/BAT-*%
X227319750Y-84444750D02*
X229468750Y-82295750D01*
X213716750Y-73043750D02*
X225117750Y-84444750D01*
X205750000Y-73043750D02*
X213716750Y-73043750D01*
X225117750Y-84444750D02*
X227319750Y-84444750D01*
X229468750Y-82295750D02*
X229468750Y-80693750D01*
%TO.N,/BAT+*%
X229393750Y-65443750D02*
X205750000Y-65443750D01*
X230625000Y-66675000D02*
X229393750Y-65443750D01*
%TD*%
M02*
