%TF.GenerationSoftware,KiCad,Pcbnew,9.0.5*%
%TF.CreationDate,2026-06-21T12:00:19+05:30*%
%TF.ProjectId,tamagotchi_circuit,74616d61-676f-4746-9368-695f63697263,rev?*%
%TF.SameCoordinates,Original*%
%TF.FileFunction,Legend,Top*%
%TF.FilePolarity,Positive*%
%FSLAX46Y46*%
G04 Gerber Fmt 4.6, Leading zero omitted, Abs format (unit mm)*
G04 Created by KiCad (PCBNEW 9.0.5) date 2026-06-21 12:00:19*
%MOMM*%
%LPD*%
G01*
G04 APERTURE LIST*
%ADD10C,0.150000*%
%ADD11C,0.127000*%
%ADD12C,0.200000*%
%ADD13C,0.120000*%
G04 APERTURE END LIST*
D10*
X234869345Y-101640950D02*
X235012202Y-101688569D01*
X235012202Y-101688569D02*
X235250297Y-101688569D01*
X235250297Y-101688569D02*
X235345535Y-101640950D01*
X235345535Y-101640950D02*
X235393154Y-101593330D01*
X235393154Y-101593330D02*
X235440773Y-101498092D01*
X235440773Y-101498092D02*
X235440773Y-101402854D01*
X235440773Y-101402854D02*
X235393154Y-101307616D01*
X235393154Y-101307616D02*
X235345535Y-101259997D01*
X235345535Y-101259997D02*
X235250297Y-101212378D01*
X235250297Y-101212378D02*
X235059821Y-101164759D01*
X235059821Y-101164759D02*
X234964583Y-101117140D01*
X234964583Y-101117140D02*
X234916964Y-101069521D01*
X234916964Y-101069521D02*
X234869345Y-100974283D01*
X234869345Y-100974283D02*
X234869345Y-100879045D01*
X234869345Y-100879045D02*
X234916964Y-100783807D01*
X234916964Y-100783807D02*
X234964583Y-100736188D01*
X234964583Y-100736188D02*
X235059821Y-100688569D01*
X235059821Y-100688569D02*
X235297916Y-100688569D01*
X235297916Y-100688569D02*
X235440773Y-100736188D01*
X235821726Y-100783807D02*
X235869345Y-100736188D01*
X235869345Y-100736188D02*
X235964583Y-100688569D01*
X235964583Y-100688569D02*
X236202678Y-100688569D01*
X236202678Y-100688569D02*
X236297916Y-100736188D01*
X236297916Y-100736188D02*
X236345535Y-100783807D01*
X236345535Y-100783807D02*
X236393154Y-100879045D01*
X236393154Y-100879045D02*
X236393154Y-100974283D01*
X236393154Y-100974283D02*
X236345535Y-101117140D01*
X236345535Y-101117140D02*
X235774107Y-101688569D01*
X235774107Y-101688569D02*
X236393154Y-101688569D01*
X246906845Y-100772200D02*
X247049702Y-100819819D01*
X247049702Y-100819819D02*
X247287797Y-100819819D01*
X247287797Y-100819819D02*
X247383035Y-100772200D01*
X247383035Y-100772200D02*
X247430654Y-100724580D01*
X247430654Y-100724580D02*
X247478273Y-100629342D01*
X247478273Y-100629342D02*
X247478273Y-100534104D01*
X247478273Y-100534104D02*
X247430654Y-100438866D01*
X247430654Y-100438866D02*
X247383035Y-100391247D01*
X247383035Y-100391247D02*
X247287797Y-100343628D01*
X247287797Y-100343628D02*
X247097321Y-100296009D01*
X247097321Y-100296009D02*
X247002083Y-100248390D01*
X247002083Y-100248390D02*
X246954464Y-100200771D01*
X246954464Y-100200771D02*
X246906845Y-100105533D01*
X246906845Y-100105533D02*
X246906845Y-100010295D01*
X246906845Y-100010295D02*
X246954464Y-99915057D01*
X246954464Y-99915057D02*
X247002083Y-99867438D01*
X247002083Y-99867438D02*
X247097321Y-99819819D01*
X247097321Y-99819819D02*
X247335416Y-99819819D01*
X247335416Y-99819819D02*
X247478273Y-99867438D01*
X247811607Y-99819819D02*
X248430654Y-99819819D01*
X248430654Y-99819819D02*
X248097321Y-100200771D01*
X248097321Y-100200771D02*
X248240178Y-100200771D01*
X248240178Y-100200771D02*
X248335416Y-100248390D01*
X248335416Y-100248390D02*
X248383035Y-100296009D01*
X248383035Y-100296009D02*
X248430654Y-100391247D01*
X248430654Y-100391247D02*
X248430654Y-100629342D01*
X248430654Y-100629342D02*
X248383035Y-100724580D01*
X248383035Y-100724580D02*
X248335416Y-100772200D01*
X248335416Y-100772200D02*
X248240178Y-100819819D01*
X248240178Y-100819819D02*
X247954464Y-100819819D01*
X247954464Y-100819819D02*
X247859226Y-100772200D01*
X247859226Y-100772200D02*
X247811607Y-100724580D01*
X222963095Y-101640950D02*
X223105952Y-101688569D01*
X223105952Y-101688569D02*
X223344047Y-101688569D01*
X223344047Y-101688569D02*
X223439285Y-101640950D01*
X223439285Y-101640950D02*
X223486904Y-101593330D01*
X223486904Y-101593330D02*
X223534523Y-101498092D01*
X223534523Y-101498092D02*
X223534523Y-101402854D01*
X223534523Y-101402854D02*
X223486904Y-101307616D01*
X223486904Y-101307616D02*
X223439285Y-101259997D01*
X223439285Y-101259997D02*
X223344047Y-101212378D01*
X223344047Y-101212378D02*
X223153571Y-101164759D01*
X223153571Y-101164759D02*
X223058333Y-101117140D01*
X223058333Y-101117140D02*
X223010714Y-101069521D01*
X223010714Y-101069521D02*
X222963095Y-100974283D01*
X222963095Y-100974283D02*
X222963095Y-100879045D01*
X222963095Y-100879045D02*
X223010714Y-100783807D01*
X223010714Y-100783807D02*
X223058333Y-100736188D01*
X223058333Y-100736188D02*
X223153571Y-100688569D01*
X223153571Y-100688569D02*
X223391666Y-100688569D01*
X223391666Y-100688569D02*
X223534523Y-100736188D01*
X224486904Y-101688569D02*
X223915476Y-101688569D01*
X224201190Y-101688569D02*
X224201190Y-100688569D01*
X224201190Y-100688569D02*
X224105952Y-100831426D01*
X224105952Y-100831426D02*
X224010714Y-100926664D01*
X224010714Y-100926664D02*
X223915476Y-100974283D01*
X194416666Y-79298569D02*
X194416666Y-80012854D01*
X194416666Y-80012854D02*
X194369047Y-80155711D01*
X194369047Y-80155711D02*
X194273809Y-80250950D01*
X194273809Y-80250950D02*
X194130952Y-80298569D01*
X194130952Y-80298569D02*
X194035714Y-80298569D01*
X195416666Y-80298569D02*
X194845238Y-80298569D01*
X195130952Y-80298569D02*
X195130952Y-79298569D01*
X195130952Y-79298569D02*
X195035714Y-79441426D01*
X195035714Y-79441426D02*
X194940476Y-79536664D01*
X194940476Y-79536664D02*
X194845238Y-79584283D01*
X202302381Y-72874759D02*
X202445238Y-72922378D01*
X202445238Y-72922378D02*
X202492857Y-72969997D01*
X202492857Y-72969997D02*
X202540476Y-73065235D01*
X202540476Y-73065235D02*
X202540476Y-73208092D01*
X202540476Y-73208092D02*
X202492857Y-73303330D01*
X202492857Y-73303330D02*
X202445238Y-73350950D01*
X202445238Y-73350950D02*
X202350000Y-73398569D01*
X202350000Y-73398569D02*
X201969048Y-73398569D01*
X201969048Y-73398569D02*
X201969048Y-72398569D01*
X201969048Y-72398569D02*
X202302381Y-72398569D01*
X202302381Y-72398569D02*
X202397619Y-72446188D01*
X202397619Y-72446188D02*
X202445238Y-72493807D01*
X202445238Y-72493807D02*
X202492857Y-72589045D01*
X202492857Y-72589045D02*
X202492857Y-72684283D01*
X202492857Y-72684283D02*
X202445238Y-72779521D01*
X202445238Y-72779521D02*
X202397619Y-72827140D01*
X202397619Y-72827140D02*
X202302381Y-72874759D01*
X202302381Y-72874759D02*
X201969048Y-72874759D01*
X202969048Y-73017616D02*
X203730953Y-73017616D01*
X202302381Y-65274759D02*
X202445238Y-65322378D01*
X202445238Y-65322378D02*
X202492857Y-65369997D01*
X202492857Y-65369997D02*
X202540476Y-65465235D01*
X202540476Y-65465235D02*
X202540476Y-65608092D01*
X202540476Y-65608092D02*
X202492857Y-65703330D01*
X202492857Y-65703330D02*
X202445238Y-65750950D01*
X202445238Y-65750950D02*
X202350000Y-65798569D01*
X202350000Y-65798569D02*
X201969048Y-65798569D01*
X201969048Y-65798569D02*
X201969048Y-64798569D01*
X201969048Y-64798569D02*
X202302381Y-64798569D01*
X202302381Y-64798569D02*
X202397619Y-64846188D01*
X202397619Y-64846188D02*
X202445238Y-64893807D01*
X202445238Y-64893807D02*
X202492857Y-64989045D01*
X202492857Y-64989045D02*
X202492857Y-65084283D01*
X202492857Y-65084283D02*
X202445238Y-65179521D01*
X202445238Y-65179521D02*
X202397619Y-65227140D01*
X202397619Y-65227140D02*
X202302381Y-65274759D01*
X202302381Y-65274759D02*
X201969048Y-65274759D01*
X202969048Y-65417616D02*
X203730953Y-65417616D01*
X203350000Y-65798569D02*
X203350000Y-65036664D01*
X182204819Y-70605654D02*
X183014342Y-70605654D01*
X183014342Y-70605654D02*
X183109580Y-70558035D01*
X183109580Y-70558035D02*
X183157200Y-70510416D01*
X183157200Y-70510416D02*
X183204819Y-70415178D01*
X183204819Y-70415178D02*
X183204819Y-70224702D01*
X183204819Y-70224702D02*
X183157200Y-70129464D01*
X183157200Y-70129464D02*
X183109580Y-70081845D01*
X183109580Y-70081845D02*
X183014342Y-70034226D01*
X183014342Y-70034226D02*
X182204819Y-70034226D01*
X183157200Y-69605654D02*
X183204819Y-69462797D01*
X183204819Y-69462797D02*
X183204819Y-69224702D01*
X183204819Y-69224702D02*
X183157200Y-69129464D01*
X183157200Y-69129464D02*
X183109580Y-69081845D01*
X183109580Y-69081845D02*
X183014342Y-69034226D01*
X183014342Y-69034226D02*
X182919104Y-69034226D01*
X182919104Y-69034226D02*
X182823866Y-69081845D01*
X182823866Y-69081845D02*
X182776247Y-69129464D01*
X182776247Y-69129464D02*
X182728628Y-69224702D01*
X182728628Y-69224702D02*
X182681009Y-69415178D01*
X182681009Y-69415178D02*
X182633390Y-69510416D01*
X182633390Y-69510416D02*
X182585771Y-69558035D01*
X182585771Y-69558035D02*
X182490533Y-69605654D01*
X182490533Y-69605654D02*
X182395295Y-69605654D01*
X182395295Y-69605654D02*
X182300057Y-69558035D01*
X182300057Y-69558035D02*
X182252438Y-69510416D01*
X182252438Y-69510416D02*
X182204819Y-69415178D01*
X182204819Y-69415178D02*
X182204819Y-69177083D01*
X182204819Y-69177083D02*
X182252438Y-69034226D01*
X182681009Y-68272321D02*
X182728628Y-68129464D01*
X182728628Y-68129464D02*
X182776247Y-68081845D01*
X182776247Y-68081845D02*
X182871485Y-68034226D01*
X182871485Y-68034226D02*
X183014342Y-68034226D01*
X183014342Y-68034226D02*
X183109580Y-68081845D01*
X183109580Y-68081845D02*
X183157200Y-68129464D01*
X183157200Y-68129464D02*
X183204819Y-68224702D01*
X183204819Y-68224702D02*
X183204819Y-68605654D01*
X183204819Y-68605654D02*
X182204819Y-68605654D01*
X182204819Y-68605654D02*
X182204819Y-68272321D01*
X182204819Y-68272321D02*
X182252438Y-68177083D01*
X182252438Y-68177083D02*
X182300057Y-68129464D01*
X182300057Y-68129464D02*
X182395295Y-68081845D01*
X182395295Y-68081845D02*
X182490533Y-68081845D01*
X182490533Y-68081845D02*
X182585771Y-68129464D01*
X182585771Y-68129464D02*
X182633390Y-68177083D01*
X182633390Y-68177083D02*
X182681009Y-68272321D01*
X182681009Y-68272321D02*
X182681009Y-68605654D01*
X187207141Y-69074759D02*
X187349998Y-69122378D01*
X187349998Y-69122378D02*
X187397617Y-69169997D01*
X187397617Y-69169997D02*
X187445236Y-69265235D01*
X187445236Y-69265235D02*
X187445236Y-69408092D01*
X187445236Y-69408092D02*
X187397617Y-69503330D01*
X187397617Y-69503330D02*
X187349998Y-69550950D01*
X187349998Y-69550950D02*
X187254760Y-69598569D01*
X187254760Y-69598569D02*
X186873808Y-69598569D01*
X186873808Y-69598569D02*
X186873808Y-68598569D01*
X186873808Y-68598569D02*
X187207141Y-68598569D01*
X187207141Y-68598569D02*
X187302379Y-68646188D01*
X187302379Y-68646188D02*
X187349998Y-68693807D01*
X187349998Y-68693807D02*
X187397617Y-68789045D01*
X187397617Y-68789045D02*
X187397617Y-68884283D01*
X187397617Y-68884283D02*
X187349998Y-68979521D01*
X187349998Y-68979521D02*
X187302379Y-69027140D01*
X187302379Y-69027140D02*
X187207141Y-69074759D01*
X187207141Y-69074759D02*
X186873808Y-69074759D01*
X188302379Y-69598569D02*
X188302379Y-69074759D01*
X188302379Y-69074759D02*
X188254760Y-68979521D01*
X188254760Y-68979521D02*
X188159522Y-68931902D01*
X188159522Y-68931902D02*
X187969046Y-68931902D01*
X187969046Y-68931902D02*
X187873808Y-68979521D01*
X188302379Y-69550950D02*
X188207141Y-69598569D01*
X188207141Y-69598569D02*
X187969046Y-69598569D01*
X187969046Y-69598569D02*
X187873808Y-69550950D01*
X187873808Y-69550950D02*
X187826189Y-69455711D01*
X187826189Y-69455711D02*
X187826189Y-69360473D01*
X187826189Y-69360473D02*
X187873808Y-69265235D01*
X187873808Y-69265235D02*
X187969046Y-69217616D01*
X187969046Y-69217616D02*
X188207141Y-69217616D01*
X188207141Y-69217616D02*
X188302379Y-69169997D01*
X188635713Y-68931902D02*
X189016665Y-68931902D01*
X188778570Y-68598569D02*
X188778570Y-69455711D01*
X188778570Y-69455711D02*
X188826189Y-69550950D01*
X188826189Y-69550950D02*
X188921427Y-69598569D01*
X188921427Y-69598569D02*
X189016665Y-69598569D01*
X189207142Y-68931902D02*
X189588094Y-68931902D01*
X189349999Y-68598569D02*
X189349999Y-69455711D01*
X189349999Y-69455711D02*
X189397618Y-69550950D01*
X189397618Y-69550950D02*
X189492856Y-69598569D01*
X189492856Y-69598569D02*
X189588094Y-69598569D01*
X190302380Y-69550950D02*
X190207142Y-69598569D01*
X190207142Y-69598569D02*
X190016666Y-69598569D01*
X190016666Y-69598569D02*
X189921428Y-69550950D01*
X189921428Y-69550950D02*
X189873809Y-69455711D01*
X189873809Y-69455711D02*
X189873809Y-69074759D01*
X189873809Y-69074759D02*
X189921428Y-68979521D01*
X189921428Y-68979521D02*
X190016666Y-68931902D01*
X190016666Y-68931902D02*
X190207142Y-68931902D01*
X190207142Y-68931902D02*
X190302380Y-68979521D01*
X190302380Y-68979521D02*
X190349999Y-69074759D01*
X190349999Y-69074759D02*
X190349999Y-69169997D01*
X190349999Y-69169997D02*
X189873809Y-69265235D01*
X190778571Y-69598569D02*
X190778571Y-68931902D01*
X190778571Y-69122378D02*
X190826190Y-69027140D01*
X190826190Y-69027140D02*
X190873809Y-68979521D01*
X190873809Y-68979521D02*
X190969047Y-68931902D01*
X190969047Y-68931902D02*
X191064285Y-68931902D01*
X191302381Y-68931902D02*
X191540476Y-69598569D01*
X191778571Y-68931902D02*
X191540476Y-69598569D01*
X191540476Y-69598569D02*
X191445238Y-69836664D01*
X191445238Y-69836664D02*
X191397619Y-69884283D01*
X191397619Y-69884283D02*
X191302381Y-69931902D01*
X193492857Y-69503330D02*
X193445238Y-69550950D01*
X193445238Y-69550950D02*
X193302381Y-69598569D01*
X193302381Y-69598569D02*
X193207143Y-69598569D01*
X193207143Y-69598569D02*
X193064286Y-69550950D01*
X193064286Y-69550950D02*
X192969048Y-69455711D01*
X192969048Y-69455711D02*
X192921429Y-69360473D01*
X192921429Y-69360473D02*
X192873810Y-69169997D01*
X192873810Y-69169997D02*
X192873810Y-69027140D01*
X192873810Y-69027140D02*
X192921429Y-68836664D01*
X192921429Y-68836664D02*
X192969048Y-68741426D01*
X192969048Y-68741426D02*
X193064286Y-68646188D01*
X193064286Y-68646188D02*
X193207143Y-68598569D01*
X193207143Y-68598569D02*
X193302381Y-68598569D01*
X193302381Y-68598569D02*
X193445238Y-68646188D01*
X193445238Y-68646188D02*
X193492857Y-68693807D01*
X193921429Y-69598569D02*
X193921429Y-68598569D01*
X194350000Y-69598569D02*
X194350000Y-69074759D01*
X194350000Y-69074759D02*
X194302381Y-68979521D01*
X194302381Y-68979521D02*
X194207143Y-68931902D01*
X194207143Y-68931902D02*
X194064286Y-68931902D01*
X194064286Y-68931902D02*
X193969048Y-68979521D01*
X193969048Y-68979521D02*
X193921429Y-69027140D01*
X195254762Y-69598569D02*
X195254762Y-69074759D01*
X195254762Y-69074759D02*
X195207143Y-68979521D01*
X195207143Y-68979521D02*
X195111905Y-68931902D01*
X195111905Y-68931902D02*
X194921429Y-68931902D01*
X194921429Y-68931902D02*
X194826191Y-68979521D01*
X195254762Y-69550950D02*
X195159524Y-69598569D01*
X195159524Y-69598569D02*
X194921429Y-69598569D01*
X194921429Y-69598569D02*
X194826191Y-69550950D01*
X194826191Y-69550950D02*
X194778572Y-69455711D01*
X194778572Y-69455711D02*
X194778572Y-69360473D01*
X194778572Y-69360473D02*
X194826191Y-69265235D01*
X194826191Y-69265235D02*
X194921429Y-69217616D01*
X194921429Y-69217616D02*
X195159524Y-69217616D01*
X195159524Y-69217616D02*
X195254762Y-69169997D01*
X195730953Y-69598569D02*
X195730953Y-68931902D01*
X195730953Y-69122378D02*
X195778572Y-69027140D01*
X195778572Y-69027140D02*
X195826191Y-68979521D01*
X195826191Y-68979521D02*
X195921429Y-68931902D01*
X195921429Y-68931902D02*
X196016667Y-68931902D01*
X196778572Y-68931902D02*
X196778572Y-69741426D01*
X196778572Y-69741426D02*
X196730953Y-69836664D01*
X196730953Y-69836664D02*
X196683334Y-69884283D01*
X196683334Y-69884283D02*
X196588096Y-69931902D01*
X196588096Y-69931902D02*
X196445239Y-69931902D01*
X196445239Y-69931902D02*
X196350001Y-69884283D01*
X196778572Y-69550950D02*
X196683334Y-69598569D01*
X196683334Y-69598569D02*
X196492858Y-69598569D01*
X196492858Y-69598569D02*
X196397620Y-69550950D01*
X196397620Y-69550950D02*
X196350001Y-69503330D01*
X196350001Y-69503330D02*
X196302382Y-69408092D01*
X196302382Y-69408092D02*
X196302382Y-69122378D01*
X196302382Y-69122378D02*
X196350001Y-69027140D01*
X196350001Y-69027140D02*
X196397620Y-68979521D01*
X196397620Y-68979521D02*
X196492858Y-68931902D01*
X196492858Y-68931902D02*
X196683334Y-68931902D01*
X196683334Y-68931902D02*
X196778572Y-68979521D01*
X197635715Y-69550950D02*
X197540477Y-69598569D01*
X197540477Y-69598569D02*
X197350001Y-69598569D01*
X197350001Y-69598569D02*
X197254763Y-69550950D01*
X197254763Y-69550950D02*
X197207144Y-69455711D01*
X197207144Y-69455711D02*
X197207144Y-69074759D01*
X197207144Y-69074759D02*
X197254763Y-68979521D01*
X197254763Y-68979521D02*
X197350001Y-68931902D01*
X197350001Y-68931902D02*
X197540477Y-68931902D01*
X197540477Y-68931902D02*
X197635715Y-68979521D01*
X197635715Y-68979521D02*
X197683334Y-69074759D01*
X197683334Y-69074759D02*
X197683334Y-69169997D01*
X197683334Y-69169997D02*
X197207144Y-69265235D01*
X198111906Y-69598569D02*
X198111906Y-68931902D01*
X198111906Y-69122378D02*
X198159525Y-69027140D01*
X198159525Y-69027140D02*
X198207144Y-68979521D01*
X198207144Y-68979521D02*
X198302382Y-68931902D01*
X198302382Y-68931902D02*
X198397620Y-68931902D01*
X200016668Y-69598569D02*
X199445240Y-69598569D01*
X199730954Y-69598569D02*
X199730954Y-68598569D01*
X199730954Y-68598569D02*
X199635716Y-68741426D01*
X199635716Y-68741426D02*
X199540478Y-68836664D01*
X199540478Y-68836664D02*
X199445240Y-68884283D01*
X200397621Y-69312854D02*
X200873811Y-69312854D01*
X200302383Y-69598569D02*
X200635716Y-68598569D01*
X200635716Y-68598569D02*
X200969049Y-69598569D01*
X182707142Y-63798569D02*
X182230952Y-63798569D01*
X182230952Y-63798569D02*
X182183333Y-64274759D01*
X182183333Y-64274759D02*
X182230952Y-64227140D01*
X182230952Y-64227140D02*
X182326190Y-64179521D01*
X182326190Y-64179521D02*
X182564285Y-64179521D01*
X182564285Y-64179521D02*
X182659523Y-64227140D01*
X182659523Y-64227140D02*
X182707142Y-64274759D01*
X182707142Y-64274759D02*
X182754761Y-64369997D01*
X182754761Y-64369997D02*
X182754761Y-64608092D01*
X182754761Y-64608092D02*
X182707142Y-64703330D01*
X182707142Y-64703330D02*
X182659523Y-64750950D01*
X182659523Y-64750950D02*
X182564285Y-64798569D01*
X182564285Y-64798569D02*
X182326190Y-64798569D01*
X182326190Y-64798569D02*
X182230952Y-64750950D01*
X182230952Y-64750950D02*
X182183333Y-64703330D01*
X183088095Y-64131902D02*
X183326190Y-64798569D01*
X183326190Y-64798569D02*
X183564285Y-64131902D01*
X184669048Y-61917616D02*
X185430953Y-61917616D01*
X185050000Y-62298569D02*
X185050000Y-61536664D01*
X200597619Y-61298569D02*
X200788095Y-61298569D01*
X200788095Y-61298569D02*
X200883333Y-61346188D01*
X200883333Y-61346188D02*
X200978571Y-61441426D01*
X200978571Y-61441426D02*
X201026190Y-61631902D01*
X201026190Y-61631902D02*
X201026190Y-61965235D01*
X201026190Y-61965235D02*
X200978571Y-62155711D01*
X200978571Y-62155711D02*
X200883333Y-62250950D01*
X200883333Y-62250950D02*
X200788095Y-62298569D01*
X200788095Y-62298569D02*
X200597619Y-62298569D01*
X200597619Y-62298569D02*
X200502381Y-62250950D01*
X200502381Y-62250950D02*
X200407143Y-62155711D01*
X200407143Y-62155711D02*
X200359524Y-61965235D01*
X200359524Y-61965235D02*
X200359524Y-61631902D01*
X200359524Y-61631902D02*
X200407143Y-61441426D01*
X200407143Y-61441426D02*
X200502381Y-61346188D01*
X200502381Y-61346188D02*
X200597619Y-61298569D01*
X201883333Y-61631902D02*
X201883333Y-62298569D01*
X201454762Y-61631902D02*
X201454762Y-62155711D01*
X201454762Y-62155711D02*
X201502381Y-62250950D01*
X201502381Y-62250950D02*
X201597619Y-62298569D01*
X201597619Y-62298569D02*
X201740476Y-62298569D01*
X201740476Y-62298569D02*
X201835714Y-62250950D01*
X201835714Y-62250950D02*
X201883333Y-62203330D01*
X202216667Y-61631902D02*
X202597619Y-61631902D01*
X202359524Y-61298569D02*
X202359524Y-62155711D01*
X202359524Y-62155711D02*
X202407143Y-62250950D01*
X202407143Y-62250950D02*
X202502381Y-62298569D01*
X202502381Y-62298569D02*
X202597619Y-62298569D01*
X202930953Y-61917616D02*
X203692858Y-61917616D01*
X203311905Y-62298569D02*
X203311905Y-61536664D01*
X200597619Y-75898569D02*
X200788095Y-75898569D01*
X200788095Y-75898569D02*
X200883333Y-75946188D01*
X200883333Y-75946188D02*
X200978571Y-76041426D01*
X200978571Y-76041426D02*
X201026190Y-76231902D01*
X201026190Y-76231902D02*
X201026190Y-76565235D01*
X201026190Y-76565235D02*
X200978571Y-76755711D01*
X200978571Y-76755711D02*
X200883333Y-76850950D01*
X200883333Y-76850950D02*
X200788095Y-76898569D01*
X200788095Y-76898569D02*
X200597619Y-76898569D01*
X200597619Y-76898569D02*
X200502381Y-76850950D01*
X200502381Y-76850950D02*
X200407143Y-76755711D01*
X200407143Y-76755711D02*
X200359524Y-76565235D01*
X200359524Y-76565235D02*
X200359524Y-76231902D01*
X200359524Y-76231902D02*
X200407143Y-76041426D01*
X200407143Y-76041426D02*
X200502381Y-75946188D01*
X200502381Y-75946188D02*
X200597619Y-75898569D01*
X201883333Y-76231902D02*
X201883333Y-76898569D01*
X201454762Y-76231902D02*
X201454762Y-76755711D01*
X201454762Y-76755711D02*
X201502381Y-76850950D01*
X201502381Y-76850950D02*
X201597619Y-76898569D01*
X201597619Y-76898569D02*
X201740476Y-76898569D01*
X201740476Y-76898569D02*
X201835714Y-76850950D01*
X201835714Y-76850950D02*
X201883333Y-76803330D01*
X202216667Y-76231902D02*
X202597619Y-76231902D01*
X202359524Y-75898569D02*
X202359524Y-76755711D01*
X202359524Y-76755711D02*
X202407143Y-76850950D01*
X202407143Y-76850950D02*
X202502381Y-76898569D01*
X202502381Y-76898569D02*
X202597619Y-76898569D01*
X202930953Y-76517616D02*
X203692858Y-76517616D01*
X184769048Y-77117616D02*
X185530953Y-77117616D01*
X182188095Y-73446188D02*
X182092857Y-73398569D01*
X182092857Y-73398569D02*
X181950000Y-73398569D01*
X181950000Y-73398569D02*
X181807143Y-73446188D01*
X181807143Y-73446188D02*
X181711905Y-73541426D01*
X181711905Y-73541426D02*
X181664286Y-73636664D01*
X181664286Y-73636664D02*
X181616667Y-73827140D01*
X181616667Y-73827140D02*
X181616667Y-73969997D01*
X181616667Y-73969997D02*
X181664286Y-74160473D01*
X181664286Y-74160473D02*
X181711905Y-74255711D01*
X181711905Y-74255711D02*
X181807143Y-74350950D01*
X181807143Y-74350950D02*
X181950000Y-74398569D01*
X181950000Y-74398569D02*
X182045238Y-74398569D01*
X182045238Y-74398569D02*
X182188095Y-74350950D01*
X182188095Y-74350950D02*
X182235714Y-74303330D01*
X182235714Y-74303330D02*
X182235714Y-73969997D01*
X182235714Y-73969997D02*
X182045238Y-73969997D01*
X182664286Y-74398569D02*
X182664286Y-73398569D01*
X182664286Y-73398569D02*
X183235714Y-74398569D01*
X183235714Y-74398569D02*
X183235714Y-73398569D01*
X183711905Y-74398569D02*
X183711905Y-73398569D01*
X183711905Y-73398569D02*
X183950000Y-73398569D01*
X183950000Y-73398569D02*
X184092857Y-73446188D01*
X184092857Y-73446188D02*
X184188095Y-73541426D01*
X184188095Y-73541426D02*
X184235714Y-73636664D01*
X184235714Y-73636664D02*
X184283333Y-73827140D01*
X184283333Y-73827140D02*
X184283333Y-73969997D01*
X184283333Y-73969997D02*
X184235714Y-74160473D01*
X184235714Y-74160473D02*
X184188095Y-74255711D01*
X184188095Y-74255711D02*
X184092857Y-74350950D01*
X184092857Y-74350950D02*
X183950000Y-74398569D01*
X183950000Y-74398569D02*
X183711905Y-74398569D01*
X227058035Y-78974759D02*
X227200892Y-79022378D01*
X227200892Y-79022378D02*
X227248511Y-79069997D01*
X227248511Y-79069997D02*
X227296130Y-79165235D01*
X227296130Y-79165235D02*
X227296130Y-79308092D01*
X227296130Y-79308092D02*
X227248511Y-79403330D01*
X227248511Y-79403330D02*
X227200892Y-79450950D01*
X227200892Y-79450950D02*
X227105654Y-79498569D01*
X227105654Y-79498569D02*
X226724702Y-79498569D01*
X226724702Y-79498569D02*
X226724702Y-78498569D01*
X226724702Y-78498569D02*
X227058035Y-78498569D01*
X227058035Y-78498569D02*
X227153273Y-78546188D01*
X227153273Y-78546188D02*
X227200892Y-78593807D01*
X227200892Y-78593807D02*
X227248511Y-78689045D01*
X227248511Y-78689045D02*
X227248511Y-78784283D01*
X227248511Y-78784283D02*
X227200892Y-78879521D01*
X227200892Y-78879521D02*
X227153273Y-78927140D01*
X227153273Y-78927140D02*
X227058035Y-78974759D01*
X227058035Y-78974759D02*
X226724702Y-78974759D01*
X227581845Y-78498569D02*
X228153273Y-78498569D01*
X227867559Y-79498569D02*
X227867559Y-78498569D01*
X229010416Y-79498569D02*
X228438988Y-79498569D01*
X228724702Y-79498569D02*
X228724702Y-78498569D01*
X228724702Y-78498569D02*
X228629464Y-78641426D01*
X228629464Y-78641426D02*
X228534226Y-78736664D01*
X228534226Y-78736664D02*
X228438988Y-78784283D01*
X224377798Y-82917616D02*
X225139703Y-82917616D01*
X224758750Y-83298569D02*
X224758750Y-82536664D01*
X181854464Y-80201069D02*
X181854464Y-79201069D01*
X181854464Y-79201069D02*
X182092559Y-79201069D01*
X182092559Y-79201069D02*
X182235416Y-79248688D01*
X182235416Y-79248688D02*
X182330654Y-79343926D01*
X182330654Y-79343926D02*
X182378273Y-79439164D01*
X182378273Y-79439164D02*
X182425892Y-79629640D01*
X182425892Y-79629640D02*
X182425892Y-79772497D01*
X182425892Y-79772497D02*
X182378273Y-79962973D01*
X182378273Y-79962973D02*
X182330654Y-80058211D01*
X182330654Y-80058211D02*
X182235416Y-80153450D01*
X182235416Y-80153450D02*
X182092559Y-80201069D01*
X182092559Y-80201069D02*
X181854464Y-80201069D01*
X182806845Y-80153450D02*
X182949702Y-80201069D01*
X182949702Y-80201069D02*
X183187797Y-80201069D01*
X183187797Y-80201069D02*
X183283035Y-80153450D01*
X183283035Y-80153450D02*
X183330654Y-80105830D01*
X183330654Y-80105830D02*
X183378273Y-80010592D01*
X183378273Y-80010592D02*
X183378273Y-79915354D01*
X183378273Y-79915354D02*
X183330654Y-79820116D01*
X183330654Y-79820116D02*
X183283035Y-79772497D01*
X183283035Y-79772497D02*
X183187797Y-79724878D01*
X183187797Y-79724878D02*
X182997321Y-79677259D01*
X182997321Y-79677259D02*
X182902083Y-79629640D01*
X182902083Y-79629640D02*
X182854464Y-79582021D01*
X182854464Y-79582021D02*
X182806845Y-79486783D01*
X182806845Y-79486783D02*
X182806845Y-79391545D01*
X182806845Y-79391545D02*
X182854464Y-79296307D01*
X182854464Y-79296307D02*
X182902083Y-79248688D01*
X182902083Y-79248688D02*
X182997321Y-79201069D01*
X182997321Y-79201069D02*
X183235416Y-79201069D01*
X183235416Y-79201069D02*
X183378273Y-79248688D01*
X184330654Y-80201069D02*
X183759226Y-80201069D01*
X184044940Y-80201069D02*
X184044940Y-79201069D01*
X184044940Y-79201069D02*
X183949702Y-79343926D01*
X183949702Y-79343926D02*
X183854464Y-79439164D01*
X183854464Y-79439164D02*
X183759226Y-79486783D01*
X226751667Y-63907200D02*
X226894524Y-63954819D01*
X226894524Y-63954819D02*
X227132619Y-63954819D01*
X227132619Y-63954819D02*
X227227857Y-63907200D01*
X227227857Y-63907200D02*
X227275476Y-63859580D01*
X227275476Y-63859580D02*
X227323095Y-63764342D01*
X227323095Y-63764342D02*
X227323095Y-63669104D01*
X227323095Y-63669104D02*
X227275476Y-63573866D01*
X227275476Y-63573866D02*
X227227857Y-63526247D01*
X227227857Y-63526247D02*
X227132619Y-63478628D01*
X227132619Y-63478628D02*
X226942143Y-63431009D01*
X226942143Y-63431009D02*
X226846905Y-63383390D01*
X226846905Y-63383390D02*
X226799286Y-63335771D01*
X226799286Y-63335771D02*
X226751667Y-63240533D01*
X226751667Y-63240533D02*
X226751667Y-63145295D01*
X226751667Y-63145295D02*
X226799286Y-63050057D01*
X226799286Y-63050057D02*
X226846905Y-63002438D01*
X226846905Y-63002438D02*
X226942143Y-62954819D01*
X226942143Y-62954819D02*
X227180238Y-62954819D01*
X227180238Y-62954819D02*
X227323095Y-63002438D01*
X227656429Y-62954819D02*
X227894524Y-63954819D01*
X227894524Y-63954819D02*
X228085000Y-63240533D01*
X228085000Y-63240533D02*
X228275476Y-63954819D01*
X228275476Y-63954819D02*
X228513572Y-62954819D01*
X229418333Y-63954819D02*
X228846905Y-63954819D01*
X229132619Y-63954819D02*
X229132619Y-62954819D01*
X229132619Y-62954819D02*
X229037381Y-63097676D01*
X229037381Y-63097676D02*
X228942143Y-63192914D01*
X228942143Y-63192914D02*
X228846905Y-63240533D01*
X148766845Y-115977319D02*
X148766845Y-116786842D01*
X148766845Y-116786842D02*
X148814464Y-116882080D01*
X148814464Y-116882080D02*
X148862083Y-116929700D01*
X148862083Y-116929700D02*
X148957321Y-116977319D01*
X148957321Y-116977319D02*
X149147797Y-116977319D01*
X149147797Y-116977319D02*
X149243035Y-116929700D01*
X149243035Y-116929700D02*
X149290654Y-116882080D01*
X149290654Y-116882080D02*
X149338273Y-116786842D01*
X149338273Y-116786842D02*
X149338273Y-115977319D01*
X149766845Y-116929700D02*
X149909702Y-116977319D01*
X149909702Y-116977319D02*
X150147797Y-116977319D01*
X150147797Y-116977319D02*
X150243035Y-116929700D01*
X150243035Y-116929700D02*
X150290654Y-116882080D01*
X150290654Y-116882080D02*
X150338273Y-116786842D01*
X150338273Y-116786842D02*
X150338273Y-116691604D01*
X150338273Y-116691604D02*
X150290654Y-116596366D01*
X150290654Y-116596366D02*
X150243035Y-116548747D01*
X150243035Y-116548747D02*
X150147797Y-116501128D01*
X150147797Y-116501128D02*
X149957321Y-116453509D01*
X149957321Y-116453509D02*
X149862083Y-116405890D01*
X149862083Y-116405890D02*
X149814464Y-116358271D01*
X149814464Y-116358271D02*
X149766845Y-116263033D01*
X149766845Y-116263033D02*
X149766845Y-116167795D01*
X149766845Y-116167795D02*
X149814464Y-116072557D01*
X149814464Y-116072557D02*
X149862083Y-116024938D01*
X149862083Y-116024938D02*
X149957321Y-115977319D01*
X149957321Y-115977319D02*
X150195416Y-115977319D01*
X150195416Y-115977319D02*
X150338273Y-116024938D01*
X151100178Y-116453509D02*
X151243035Y-116501128D01*
X151243035Y-116501128D02*
X151290654Y-116548747D01*
X151290654Y-116548747D02*
X151338273Y-116643985D01*
X151338273Y-116643985D02*
X151338273Y-116786842D01*
X151338273Y-116786842D02*
X151290654Y-116882080D01*
X151290654Y-116882080D02*
X151243035Y-116929700D01*
X151243035Y-116929700D02*
X151147797Y-116977319D01*
X151147797Y-116977319D02*
X150766845Y-116977319D01*
X150766845Y-116977319D02*
X150766845Y-115977319D01*
X150766845Y-115977319D02*
X151100178Y-115977319D01*
X151100178Y-115977319D02*
X151195416Y-116024938D01*
X151195416Y-116024938D02*
X151243035Y-116072557D01*
X151243035Y-116072557D02*
X151290654Y-116167795D01*
X151290654Y-116167795D02*
X151290654Y-116263033D01*
X151290654Y-116263033D02*
X151243035Y-116358271D01*
X151243035Y-116358271D02*
X151195416Y-116405890D01*
X151195416Y-116405890D02*
X151100178Y-116453509D01*
X151100178Y-116453509D02*
X150766845Y-116453509D01*
D11*
%TO.C,S2*%
X232748750Y-105013750D02*
X232748750Y-109298750D01*
X234601250Y-104161250D02*
X236886250Y-104161250D01*
X234601250Y-110151250D02*
X236886250Y-110151250D01*
X238738750Y-105013750D02*
X238738750Y-109298750D01*
D12*
X239843750Y-103906250D02*
G75*
G02*
X239643750Y-103906250I-100000J0D01*
G01*
X239643750Y-103906250D02*
G75*
G02*
X239843750Y-103906250I100000J0D01*
G01*
D11*
%TO.C,S3*%
X244786250Y-104145000D02*
X244786250Y-108430000D01*
X246638750Y-103292500D02*
X248923750Y-103292500D01*
X246638750Y-109282500D02*
X248923750Y-109282500D01*
X250776250Y-104145000D02*
X250776250Y-108430000D01*
D12*
X251881250Y-103037500D02*
G75*
G02*
X251681250Y-103037500I-100000J0D01*
G01*
X251681250Y-103037500D02*
G75*
G02*
X251881250Y-103037500I100000J0D01*
G01*
D11*
%TO.C,S1*%
X220842500Y-105013750D02*
X220842500Y-109298750D01*
X222695000Y-104161250D02*
X224980000Y-104161250D01*
X222695000Y-110151250D02*
X224980000Y-110151250D01*
X226832500Y-105013750D02*
X226832500Y-109298750D01*
D12*
X227937500Y-103906250D02*
G75*
G02*
X227737500Y-103906250I-100000J0D01*
G01*
X227737500Y-103906250D02*
G75*
G02*
X227937500Y-103906250I100000J0D01*
G01*
D10*
%TO.C,J1*%
X181150000Y-60243750D02*
X207450000Y-60243750D01*
X181150000Y-78043750D02*
X181150000Y-60243750D01*
X181550000Y-67443750D02*
X184050000Y-67443750D01*
X181550000Y-71243750D02*
X181550000Y-67543750D01*
X184050000Y-67443750D02*
X184050000Y-71243750D01*
X184050000Y-71243750D02*
X181550000Y-71243750D01*
X207250000Y-62743750D02*
X207250000Y-75643750D01*
X207250000Y-75643750D02*
X207550000Y-75643750D01*
X207450000Y-60243750D02*
X209550000Y-60243750D01*
X207450000Y-75643750D02*
X209550000Y-75643750D01*
X209550000Y-60243750D02*
X209550000Y-62743750D01*
X209550000Y-62743750D02*
X207250000Y-62743750D01*
X209550000Y-75643750D02*
X209550000Y-75943750D01*
X209550000Y-75943750D02*
X209550000Y-78043750D01*
X209550000Y-78043750D02*
X181150000Y-78043750D01*
D13*
%TO.C,BT1*%
X222733750Y-80483750D02*
X228408750Y-80483750D01*
X222733750Y-83553750D02*
X222733750Y-80483750D01*
X222733750Y-83553750D02*
X225158750Y-83553750D01*
X227278750Y-83553750D02*
X232953750Y-83553750D01*
X230528750Y-80483750D02*
X232953750Y-80483750D01*
X232953750Y-83553750D02*
X232953750Y-80483750D01*
D11*
%TO.C,DS1*%
X179893750Y-80781250D02*
X215393750Y-80781250D01*
X179893750Y-114481250D02*
X179893750Y-80781250D01*
X215393750Y-80781250D02*
X215393750Y-114481250D01*
X215393750Y-114481250D02*
X179893750Y-114481250D01*
D12*
X193933750Y-80231250D02*
G75*
G02*
X193733750Y-80231250I-100000J0D01*
G01*
X193733750Y-80231250D02*
G75*
G02*
X193933750Y-80231250I100000J0D01*
G01*
D11*
%TO.C,SW1*%
X224825000Y-64675000D02*
X236425000Y-64675000D01*
X224825000Y-68675000D02*
X224825000Y-64675000D01*
X236425000Y-64675000D02*
X236425000Y-68675000D01*
X236425000Y-68675000D02*
X224825000Y-68675000D01*
D12*
X228225000Y-69175000D02*
G75*
G02*
X228025000Y-69175000I-100000J0D01*
G01*
X228025000Y-69175000D02*
G75*
G02*
X228225000Y-69175000I100000J0D01*
G01*
D13*
%TO.C,A1*%
X141008750Y-77022500D02*
X141008750Y-79692500D01*
X141008750Y-82232500D02*
X141008750Y-120462500D01*
X141008750Y-120462500D02*
X146088750Y-120462500D01*
X143678750Y-79692500D02*
X141008750Y-79692500D01*
X143678750Y-82232500D02*
X141008750Y-82232500D01*
X143678750Y-82232500D02*
X143678750Y-79692500D01*
X143678750Y-82232500D02*
X143678750Y-117792500D01*
X143678750Y-117792500D02*
X141008750Y-117792500D01*
X146088750Y-112582500D02*
X153968750Y-112582500D01*
X146088750Y-123002500D02*
X146088750Y-112582500D01*
X153968750Y-112582500D02*
X153968750Y-123002500D01*
X153968750Y-123002500D02*
X146088750Y-123002500D01*
X156378750Y-79692500D02*
X156378750Y-117792500D01*
X156378750Y-79692500D02*
X159048750Y-79692500D01*
X156378750Y-117792500D02*
X159048750Y-117792500D01*
X159048750Y-77022500D02*
X141008750Y-77022500D01*
X159048750Y-120462500D02*
X153968750Y-120462500D01*
X159048750Y-120462500D02*
X159048750Y-77022500D01*
%TD*%
M02*
