%TF.GenerationSoftware,KiCad,Pcbnew,9.0.5*%
%TF.CreationDate,2026-06-21T12:00:19+05:30*%
%TF.ProjectId,tamagotchi_circuit,74616d61-676f-4746-9368-695f63697263,rev?*%
%TF.SameCoordinates,Original*%
%TF.FileFunction,Soldermask,Top*%
%TF.FilePolarity,Negative*%
%FSLAX46Y46*%
G04 Gerber Fmt 4.6, Leading zero omitted, Abs format (unit mm)*
G04 Created by KiCad (PCBNEW 9.0.5) date 2026-06-21 12:00:19*
%MOMM*%
%LPD*%
G01*
G04 APERTURE LIST*
G04 Aperture macros list*
%AMRoundRect*
0 Rectangle with rounded corners*
0 $1 Rounding radius*
0 $2 $3 $4 $5 $6 $7 $8 $9 X,Y pos of 4 corners*
0 Add a 4 corners polygon primitive as box body*
4,1,4,$2,$3,$4,$5,$6,$7,$8,$9,$2,$3,0*
0 Add four circle primitives for the rounded corners*
1,1,$1+$1,$2,$3*
1,1,$1+$1,$4,$5*
1,1,$1+$1,$6,$7*
1,1,$1+$1,$8,$9*
0 Add four rect primitives between the rounded corners*
20,1,$1+$1,$2,$3,$4,$5,0*
20,1,$1+$1,$4,$5,$6,$7,0*
20,1,$1+$1,$6,$7,$8,$9,0*
20,1,$1+$1,$8,$9,$2,$3,0*%
G04 Aperture macros list end*
%ADD10C,1.779000*%
%ADD11R,2.800000X2.800000*%
%ADD12R,1.600000X1.600000*%
%ADD13C,1.600000*%
%ADD14C,3.000000*%
%ADD15RoundRect,0.102000X-0.754000X-0.754000X0.754000X-0.754000X0.754000X0.754000X-0.754000X0.754000X0*%
%ADD16C,1.712000*%
%ADD17O,1.600000X1.600000*%
G04 APERTURE END LIST*
D10*
%TO.C,S2*%
X237993750Y-103906250D03*
X237993750Y-110406250D03*
X233493750Y-103906250D03*
X233493750Y-110406250D03*
%TD*%
%TO.C,S3*%
X250031250Y-103037500D03*
X250031250Y-109537500D03*
X245531250Y-103037500D03*
X245531250Y-109537500D03*
%TD*%
%TO.C,S1*%
X226087500Y-103906250D03*
X226087500Y-110406250D03*
X221587500Y-103906250D03*
X221587500Y-110406250D03*
%TD*%
D11*
%TO.C,J1*%
X182850000Y-61943750D03*
X182850000Y-76143750D03*
X205750000Y-61943750D03*
X205750000Y-76443750D03*
X205750000Y-65443750D03*
X205750000Y-73043750D03*
%TD*%
D12*
%TO.C,BT1*%
X226218750Y-83343750D03*
D13*
X229468750Y-80693750D03*
%TD*%
D14*
%TO.C,DS1*%
X181893750Y-82781250D03*
X181893750Y-112481250D03*
X213393750Y-82781250D03*
X213393750Y-112481250D03*
D15*
X193833750Y-82081250D03*
D16*
X196373750Y-82081250D03*
X198913750Y-82081250D03*
X201453750Y-82081250D03*
%TD*%
%TO.C,SW1*%
X228125000Y-66675000D03*
X230625000Y-66675000D03*
X233125000Y-66675000D03*
%TD*%
D12*
%TO.C,A1*%
X142408750Y-80962500D03*
D17*
X142408750Y-83502500D03*
X142408750Y-86042500D03*
X142408750Y-88582500D03*
X142408750Y-91122500D03*
X142408750Y-93662500D03*
X142408750Y-96202500D03*
X142408750Y-98742500D03*
X142408750Y-101282500D03*
X142408750Y-103822500D03*
X142408750Y-106362500D03*
X142408750Y-108902500D03*
X142408750Y-111442500D03*
X142408750Y-113982500D03*
X142408750Y-116522500D03*
X157648750Y-116522500D03*
X157648750Y-113982500D03*
X157648750Y-111442500D03*
X157648750Y-108902500D03*
X157648750Y-106362500D03*
X157648750Y-103822500D03*
X157648750Y-101282500D03*
X157648750Y-98742500D03*
X157648750Y-96202500D03*
X157648750Y-93662500D03*
X157648750Y-91122500D03*
X157648750Y-88582500D03*
X157648750Y-86042500D03*
X157648750Y-83502500D03*
X157648750Y-80962500D03*
%TD*%
M02*
