M48
; DRILL file {KiCad 9.0.5} date 2026-06-21T12:00:16+0530
; FORMAT={-:-/ absolute / metric / decimal}
; #@! TF.CreationDate,2026-06-21T12:00:16+05:30
; #@! TF.GenerationSoftware,Kicad,Pcbnew,9.0.5
; #@! TF.FileFunction,Plated,1,2,PTH
FMAT,2
METRIC
; #@! TA.AperFunction,Plated,PTH,ComponentDrill
T1C1.000
; #@! TA.AperFunction,Plated,PTH,ComponentDrill
T2C1.050
; #@! TA.AperFunction,Plated,PTH,ComponentDrill
T3C1.090
; #@! TA.AperFunction,Plated,PTH,ComponentDrill
T4C1.540
%
G90
G05
T1
X142.409Y-80.962
X142.409Y-83.502
X142.409Y-86.042
X142.409Y-88.582
X142.409Y-91.123
X142.409Y-93.662
X142.409Y-96.203
X142.409Y-98.742
X142.409Y-101.282
X142.409Y-103.822
X142.409Y-106.362
X142.409Y-108.902
X142.409Y-111.442
X142.409Y-113.983
X142.409Y-116.522
X157.649Y-80.962
X157.649Y-83.502
X157.649Y-86.042
X157.649Y-88.582
X157.649Y-91.123
X157.649Y-93.662
X157.649Y-96.203
X157.649Y-98.742
X157.649Y-101.282
X157.649Y-103.822
X157.649Y-106.362
X157.649Y-108.902
X157.649Y-111.442
X157.649Y-113.983
X157.649Y-116.522
X193.834Y-82.081
X196.374Y-82.081
X198.914Y-82.081
X201.454Y-82.081
X228.125Y-66.675
X230.625Y-66.675
X233.125Y-66.675
T2
X221.587Y-103.906
X221.587Y-110.406
X226.087Y-103.906
X226.087Y-110.406
X233.494Y-103.906
X233.494Y-110.406
X237.994Y-103.906
X237.994Y-110.406
X245.531Y-103.037
X245.531Y-109.537
X250.031Y-103.037
X250.031Y-109.537
T3
X226.219Y-83.344
X229.469Y-80.694
T4
X182.85Y-61.944
X182.85Y-76.144
X205.75Y-61.944
X205.75Y-65.444
X205.75Y-73.044
X205.75Y-76.444
M30
